<svg id="icons" enable-background="new 0 0 64 64" height="512" viewBox="0 0 64 64" width="512" xmlns="http://www.w3.org/2000/svg"><path d="m55.001 1.5c4.42 0 8 3.58 8 8 0 6.86-8 14-8 14s-8-7.14-8-14c0-4.42 3.58-8 8-8zm3 8c0-1.65-1.35-3-3-3-1.66 0-3 1.35-3 3 0 1.66 1.34 3 3 3 1.65 0 3-1.34 3-3z" fill="#94c1ff"/><path d="m15.491 44c0 .83-.66 1.49-1.49 1.5h-.01c-.83 0-1.5-.67-1.5-1.5 0-.82.67-1.5 1.5-1.5s1.5.68 1.5 1.5z" fill="#94c1ff"/><path d="m25.001 59.5h-22v-3c0-6.07 4.92-10.99 10.99-11h.01c6.08 0 11 4.93 11 11v2.94z" fill="#d7e9ff"/><path d="m14.001 45.5h-.01c-.506.001-1.001.048-1.489.114 5.365.735 9.496 5.326 9.496 10.886v2.94.06h3.003v-.06-2.94c0-6.07-4.92-11-11-11z" fill="#94c1ff"/><path d="m3.001 59.5h22 1v1c0 1.11-.9 2-2 2h-20c-1.1 0-2-.89-2-2v-1z" fill="#fff"/><g fill="#116fff"><path d="m55.001 24.5c-.238 0-.477-.084-.666-.254-.341-.304-8.334-7.526-8.334-14.746 0-4.962 4.037-9 9-9s9 4.038 9 9c0 7.22-7.993 14.442-8.334 14.746-.189.169-.428.254-.666.254zm0-22c-3.859 0-7 3.14-7 7 0 5.21 5.134 10.77 6.999 12.617 1.865-1.85 7.001-7.417 7.001-12.617 0-3.86-3.141-7-7-7z"/><path d="m51.52 54.502h-22.517c-.553 0-1-.447-1-1s.447-1 1-1h22.517c.553 0 1 .447 1 1s-.448 1-1 1z"/><path d="m51.52 39.498h-39.03c-.553 0-1-.447-1-1s.447-1 1-1h39.03c.553 0 1 .447 1 1s-.448 1-1 1z"/><path d="m48.002 24.5h-35.015c-.553 0-1-.448-1-1s.447-1 1-1h35.015c.553 0 1 .448 1 1s-.447 1-1 1z"/><path d="m51.52 54.502c-.553 0-1-.447-1-1s.447-1 1-1c3.585 0 6.502-2.917 6.502-6.502s-2.917-6.502-6.502-6.502c-.553 0-1-.447-1-1s.447-1 1-1c4.688 0 8.502 3.813 8.502 8.502s-3.814 8.502-8.502 8.502z"/><path d="m12.489 39.498c-4.688 0-8.502-3.813-8.502-8.501s3.813-8.502 8.502-8.502c.553 0 1 .448 1 1s-.447 1-1 1c-3.585 0-6.502 2.917-6.502 6.502 0 3.584 2.917 6.501 6.502 6.501.553 0 1 .447 1 1s-.447 1-1 1z"/><path d="m54.995 13.5c-2.206 0-4-1.795-4-4.001 0-2.205 1.794-3.999 4-3.999s4 1.794 4 3.999c0 2.206-1.794 4.001-4 4.001zm0-6c-1.103 0-2 .897-2 1.999 0 1.104.897 2.001 2 2.001s2-.897 2-2.001c0-1.103-.897-1.999-2-1.999z"/><path d="m27 60.502h-26.001c-.553 0-1-.447-1-1s.447-1 1-1h26.001c.553 0 1 .447 1 1s-.447 1-1 1z"/><path d="m25.001 57.5c-.553 0-1-.447-1-1 0-5.514-4.486-10-10-10s-10 4.486-10 10c0 .553-.447 1-1 1s-1-.447-1-1c0-6.617 5.383-12 12-12s12 5.383 12 12c0 .553-.447 1-1 1z"/><path d="m3.001 60.502c-.553 0-1-.447-1-1v-3.002c0-.553.447-1 1-1s1 .447 1 1v3.002c0 .553-.447 1-1 1z"/><path d="m24.999 60.438c-.553 0-1-.447-1-1v-2.938c0-.553.447-1 1-1s1 .447 1 1v2.938c0 .552-.447 1-1 1z"/><path d="m4 63.5c-1.654 0-3-1.346-3-3 0-.553.447-1 1-1s1 .447 1 1c0 .552.448 1 1 1 .553 0 1 .447 1 1s-.447 1-1 1z"/><path d="m23.998 63.5c-.553 0-1-.447-1-1s.447-1 1-1c.552 0 1-.448 1-1 0-.553.447-1 1-1s1 .447 1 1c0 1.654-1.346 3-3 3z"/><path d="m23.998 63.5h-19.998c-.553 0-1-.447-1-1s.447-1 1-1h19.998c.553 0 1 .447 1 1s-.447 1-1 1z"/><path d="m26 61.5c-.553 0-1-.447-1-1v-.998c0-.553.447-1 1-1s1 .447 1 1v.998c0 .553-.447 1-1 1z"/><path d="m2.001 61.5c-.553 0-1-.447-1-1v-.998c0-.553.447-1 1-1s1 .447 1 1v.998c0 .553-.447 1-1 1z"/><path d="m13.989 46.5c-1.379 0-2.5-1.121-2.5-2.5s1.121-2.5 2.5-2.5 2.5 1.121 2.5 2.5-1.121 2.5-2.5 2.5zm0-3c-.275 0-.5.225-.5.5s.225.5.5.5.5-.225.5-.5-.224-.5-.5-.5z"/></g></svg>